<?xml version="1.0" ?><!DOCTYPE svg  PUBLIC '-//W3C//DTD SVG 1.1//EN'  'http://www.w3.org/Graphics/SVG/1.1/DTD/svg11.dtd'><svg enable-background="new 0 0 512 512" height="512px" id="paper_x5F_bag_x5F_print" version="1.1" viewBox="0 0 512 512" width="512px" xml:space="preserve" xmlns="http://www.w3.org/2000/svg" xmlns:xlink="http://www.w3.org/1999/xlink"><g><path d="M132.226,274.695c2.209,0,4-1.791,4-4v-11c0-2.209-1.791-4-4-4s-4,1.791-4,4v11   C128.226,272.904,130.017,274.695,132.226,274.695z"/><path d="M132.226,296.695c2.209,0,4-1.791,4-4v-11c0-2.209-1.791-4-4-4s-4,1.791-4,4v11   C128.226,294.904,130.017,296.695,132.226,296.695z"/><path d="M132.226,252.695c2.209,0,4-1.791,4-4v-11c0-2.209-1.791-4-4-4s-4,1.791-4,4v11   C128.226,250.904,130.017,252.695,132.226,252.695z"/><path d="M132.226,362.695c2.209,0,4-1.791,4-4v-11c0-2.209-1.791-4-4-4s-4,1.791-4,4v11   C128.226,360.904,130.017,362.695,132.226,362.695z"/><path d="M132.226,318.695c2.209,0,4-1.791,4-4v-11c0-2.209-1.791-4-4-4s-4,1.791-4,4v11   C128.226,316.904,130.017,318.695,132.226,318.695z"/><path d="M132.226,340.695c2.209,0,4-1.791,4-4v-11c0-2.209-1.791-4-4-4s-4,1.791-4,4v11   C128.226,338.904,130.017,340.695,132.226,340.695z"/><path d="M178.511,232.98h11c2.209,0,4-1.791,4-4s-1.791-4-4-4h-11c-2.209,0-4,1.791-4,4S176.302,232.98,178.511,232.98z"/><path d="M244.511,232.98h11c2.209,0,4-1.791,4-4s-1.791-4-4-4h-11c-2.209,0-4,1.791-4,4S242.302,232.98,244.511,232.98z"/><path d="M134.511,232.98h11c2.209,0,4-1.791,4-4s-1.791-4-4-4h-11c-2.209,0-4,1.791-4,4S132.302,232.98,134.511,232.98z"/><path d="M266.511,232.98h11c2.209,0,4-1.791,4-4s-1.791-4-4-4h-11c-2.209,0-4,1.791-4,4S264.302,232.98,266.511,232.98z"/><path d="M222.511,232.98h11c2.209,0,4-1.791,4-4s-1.791-4-4-4h-11c-2.209,0-4,1.791-4,4S220.302,232.98,222.511,232.98z"/><path d="M200.511,232.98h11c2.209,0,4-1.791,4-4s-1.791-4-4-4h-11c-2.209,0-4,1.791-4,4S198.302,232.98,200.511,232.98z"/><path d="M156.511,232.98h11c2.209,0,4-1.791,4-4s-1.791-4-4-4h-11c-2.209,0-4,1.791-4,4S154.302,232.98,156.511,232.98z"/><path d="M136.226,375.551v-5.855c0-2.209-1.791-4-4-4s-4,1.791-4,4v9.197c0,2.209,1.791,4,4,4h1.803c2.209,0,4-1.791,4-4   C138.028,377.496,137.312,376.266,136.226,375.551z"/><path d="M310.028,310.463c2.209,0,4-1.791,4-4v-11c0-2.209-1.791-4-4-4s-4,1.791-4,4v11   C306.028,308.672,307.819,310.463,310.028,310.463z"/><path d="M310.028,332.463c2.209,0,4-1.791,4-4v-11c0-2.209-1.791-4-4-4s-4,1.791-4,4v11   C306.028,330.672,307.819,332.463,310.028,332.463z"/><path d="M310.028,288.463c2.209,0,4-1.791,4-4v-11c0-2.209-1.791-4-4-4s-4,1.791-4,4v11   C306.028,286.672,307.819,288.463,310.028,288.463z"/><path d="M310.028,354.463c2.209,0,4-1.791,4-4v-11c0-2.209-1.791-4-4-4s-4,1.791-4,4v11   C306.028,352.672,307.819,354.463,310.028,354.463z"/><path d="M284.511,228.98c0,2.209,1.791,4,4,4h11c2.209,0,4-1.791,4-4s-1.791-4-4-4h-11   C286.302,224.98,284.511,226.771,284.511,228.98z"/><path d="M310.028,266.463c2.209,0,4-1.791,4-4v-11c0-2.209-1.791-4-4-4s-4,1.791-4,4v11   C306.028,264.672,307.819,266.463,310.028,266.463z"/><path d="M299.028,374.893c-2.209,0-4,1.791-4,4s1.791,4,4,4h11c2.209,0,4-1.791,4-4c0-1.316-0.637-2.485-1.619-3.215   c0.982-0.729,1.619-1.896,1.619-3.215v-11c0-2.209-1.791-4-4-4s-4,1.791-4,4v11c0,0.914,0.307,1.757,0.822,2.43H299.028z"/><path d="M200.028,374.893h-11c-2.209,0-4,1.791-4,4s1.791,4,4,4h11c2.209,0,4-1.791,4-4S202.237,374.893,200.028,374.893z"/><path d="M156.028,374.893h-11c-2.209,0-4,1.791-4,4s1.791,4,4,4h11c2.209,0,4-1.791,4-4S158.237,374.893,156.028,374.893z"/><path d="M178.028,374.893h-11c-2.209,0-4,1.791-4,4s1.791,4,4,4h11c2.209,0,4-1.791,4-4S180.237,374.893,178.028,374.893z"/><path d="M222.028,374.893h-11c-2.209,0-4,1.791-4,4s1.791,4,4,4h11c2.209,0,4-1.791,4-4S224.237,374.893,222.028,374.893z"/><path d="M288.028,374.893h-11c-2.209,0-4,1.791-4,4s1.791,4,4,4h11c2.209,0,4-1.791,4-4S290.237,374.893,288.028,374.893z"/><path d="M310.028,244.463c2.209,0,4-1.791,4-4v-11c0-2.209-1.791-4-4-4s-4,1.791-4,4v11   C306.028,242.672,307.819,244.463,310.028,244.463z"/><path d="M244.028,374.893h-11c-2.209,0-4,1.791-4,4s1.791,4,4,4h11c2.209,0,4-1.791,4-4S246.237,374.893,244.028,374.893z"/><path d="M266.028,374.893h-11c-2.209,0-4,1.791-4,4s1.791,4,4,4h11c2.209,0,4-1.791,4-4S268.237,374.893,266.028,374.893z"/><path d="M423.848,458.896V173.199c0-2.209-1.791-4-4-4h-58.754v-48.975c0-39.316-31.986-71.303-71.304-71.303h-1.359   c-12.027,0-23.362,3.005-33.312,8.286c-9.95-5.281-21.284-8.286-33.312-8.286h-1.359c-39.317,0-71.304,31.986-71.304,71.303v48.975   H92.133c-2.209,0-4,1.791-4,4v285.879c0,2.209,1.791,4,4,4h257.988h69.727c0.007,0.001,0.015,0,0.02,0c2.21,0,4-1.791,4-4   C423.867,459.016,423.851,458.958,423.848,458.896z M157.144,120.225c0-34.905,28.397-63.303,63.304-63.303h1.359   c8.979,0,17.52,1.891,25.265,5.276c-18.107,12.943-29.944,34.122-29.944,58.027v48.975h-59.983V120.225z M285.11,169.199h-59.983   v-48.975c0-22.689,12.006-42.62,29.992-53.797c17.986,11.177,29.992,31.107,29.992,53.797V169.199z M346.121,455.078H96.133   V177.199h249.988V455.078z M293.11,169.199v-48.975c0-23.905-11.837-45.084-29.944-58.027c7.744-3.385,16.286-5.276,25.265-5.276   h1.359c34.906,0,63.304,28.397,63.304,63.303v48.975h-2.973H293.11z M359.312,455.078l25.673-27.568l25.673,27.568H359.312z    M415.848,448.914l-26.863-28.848V317.883c0-2.209-1.791-4-4-4s-4,1.791-4,4v102.184l-26.863,28.846V177.199h61.727V448.914z"/></g></svg>